<?xml version="1.0" encoding="utf-8"?>
<!-- Generator: Adobe Illustrator 22.1.0, SVG Export Plug-In . SVG Version: 6.00 Build 0)  -->
<svg version="1.1" id="Layer_1" xmlns="http://www.w3.org/2000/svg" xmlns:xlink="http://www.w3.org/1999/xlink" x="0px" y="0px"
	 viewBox="0 0 620 120" style="enable-background:new 0 0 620 120;" xml:space="preserve">
<style type="text/css">
	.st0{fill:#FFF200;}
	.st1{fill:#00AEEF;}
	.st2{fill:#F7941D;}
	.st3{fill:#F15A29;}
	.st4{fill:#BE1E2D;}
	.st5{fill:#2E3192;}
	.st6{fill:#00A651;}
	.st7{fill:#EF4136;}
</style>
<path d="M21.1,13L6.9,27.7v64.1h62V78.7L55.4,65.5h13.5v-13l-13.5-13h13.5V26.5L55.4,13H21.1z M20.8,78.7L8.5,90.3V28.5l12.3-12.6
	V78.7z M54.2,27.5H38v11.7h16.2v13.3H38v12.9h16.2v12.2H22.5V14.6h31.7V27.5z"/>
<polygon class="st0" points="52.2,67.4 36.1,67.4 36.1,50.5 52.2,50.5 52.2,41.2 36.1,41.2 36.1,25.5 52.2,25.5 52.2,16.6 
	24.5,16.6 24.5,75.7 52.2,75.7 "/>
<path d="M84.5,38L71.6,50.9v17.8h58.3V50.9L114.6,38H84.5z M84.5,54.4L73.4,65.6V51.8l11.1-11V54.4z M113.4,53.6H86.5V39.9h26.9
	V53.6z"/>
<rect x="88.5" y="41.9" class="st1" width="23" height="9.8"/>
<path class="st2" d="M180.8,35.7c-4.9-3.7-10.5-5.5-17-5.5c-8.8,0-16.2,3.1-22.2,9.2c-6,6.2-9,13.7-9,22.7c0,9.1,2.9,16.5,8.6,22.2
	c5.7,5.7,13.2,8.5,22.5,8.5c4.4,0,8.7-0.6,12.7-1.7c4-1.2,7.8-2.9,11.5-5.2l-1.6-19.9c-3.4,3-6.8,5.2-10.3,6.8
	c-3.5,1.5-6.9,2.3-10.1,2.3c-1.4,0-2.6-0.1-3.8-0.3c-1.1-0.2-2.2-0.5-3.2-1L191.3,51C189.1,44.5,185.6,39.4,180.8,35.7z M151,62
	c-0.1-0.5-0.2-1.1-0.3-1.6c-0.1-0.5-0.1-1-0.1-1.4c0-3.3,1.2-6.3,3.7-8.8c2.5-2.5,5.4-3.8,8.7-3.8c1.4,0,2.6,0.2,3.6,0.5
	c1,0.4,2,1,2.8,1.8L151,62z"/>
<path class="st3" d="M264.8,30.1c-3.3,0-6.4,0.7-9.3,2c-2.9,1.4-5.5,3.4-7.8,6c-1.7-2.7-3.7-4.7-6.1-6c-2.4-1.3-5.2-2-8.3-2
	c-2.9,0-5.7,0.6-8.3,1.9c-2.6,1.3-4.9,3.1-6.9,5.5V31h-19.3v60.8h19.7V59.7c0-3,0.5-5.4,1.6-7c1.1-1.6,2.7-2.4,4.8-2.4
	s3.5,0.7,4.4,2c0.8,1.3,1.3,3.7,1.3,7.2v32.3h19.7V59.7c0-3,0.5-5.4,1.6-7c1.1-1.6,2.7-2.4,4.8-2.4c2.1,0,3.5,0.7,4.4,2
	c0.8,1.3,1.3,3.7,1.3,7.2v32.3h19.7V50.8c0-6.7-1.5-11.9-4.4-15.4C274.8,31.9,270.4,30.1,264.8,30.1z"/>
<path class="st4" d="M328.4,30.5c-3.1,0-6,0.5-8.5,1.5c-2.6,1-5.1,2.6-7.6,4.9V31h-19.6v80.8h20V89c2,1.3,4.1,2.3,6.4,2.9
	c2.3,0.6,4.8,1,7.4,1c8.5,0,15.6-3,21.2-8.9c5.6-5.9,8.5-13.4,8.5-22.5c0-8.7-2.7-16-8.1-22C342.7,33.5,336.1,30.5,328.4,30.5z
	 M332.5,69.1c-2.1,2.1-4.7,3.1-7.8,3.1c-3.1,0-5.7-1-7.9-3.1c-2.2-2.1-3.2-4.6-3.2-7.6c0-3,1.1-5.6,3.3-7.7c2.2-2.1,4.8-3.2,7.8-3.2
	c3,0,5.6,1.1,7.8,3.2c2.2,2.1,3.2,4.7,3.2,7.7C335.7,64.4,334.7,67,332.5,69.1z"/>
<rect x="364.6" y="7.3" class="st5" width="20" height="84.5"/>
<polygon class="st1" points="421.3,61 412.3,31 389.9,31 411.6,89.5 403.4,111.8 425.6,111.8 450,31 428.1,31 "/>
<path class="st6" d="M500.8,35.7c-4.9-3.7-10.5-5.5-17-5.5c-8.8,0-16.2,3.1-22.2,9.2c-6,6.2-9,13.7-9,22.7c0,9.1,2.9,16.5,8.6,22.2
	c5.7,5.7,13.2,8.5,22.5,8.5c4.4,0,8.7-0.6,12.7-1.7c4-1.2,7.8-2.9,11.5-5.2l-1.6-19.9c-3.4,3-6.8,5.2-10.3,6.8
	c-3.5,1.5-6.9,2.3-10.1,2.3c-1.4,0-2.6-0.1-3.8-0.3c-1.1-0.2-2.2-0.5-3.2-1L511.3,51C509.1,44.5,505.6,39.4,500.8,35.7z M471,62
	c-0.1-0.5-0.2-1.1-0.3-1.6c-0.1-0.5-0.1-1-0.1-1.4c0-3.3,1.2-6.3,3.7-8.8c2.5-2.5,5.4-3.8,8.7-3.8c1.4,0,2.6,0.2,3.6,0.5
	c1,0.4,2,1,2.8,1.8L471,62z"/>
<path class="st7" d="M564.2,35.7c-4.9-3.7-10.5-5.5-17-5.5c-8.8,0-16.2,3.1-22.2,9.2c-6,6.2-9,13.7-9,22.7c0,9.1,2.9,16.5,8.6,22.2
	c5.7,5.7,13.2,8.5,22.5,8.5c4.4,0,8.7-0.6,12.7-1.7s7.8-2.9,11.5-5.2l-1.6-19.9c-3.4,3-6.8,5.2-10.3,6.8c-3.5,1.5-6.9,2.3-10.1,2.3
	c-1.4,0-2.6-0.1-3.8-0.3c-1.1-0.2-2.2-0.5-3.2-1L574.7,51C572.5,44.5,569,39.4,564.2,35.7z M534.4,62c-0.1-0.5-0.2-1.1-0.3-1.6
	c-0.1-0.5-0.1-1-0.1-1.4c0-3.3,1.2-6.3,3.7-8.8c2.5-2.5,5.4-3.8,8.7-3.8c1.4,0,2.6,0.2,3.6,0.5c1,0.4,2,1,2.8,1.8L534.4,62z"/>
<path class="st5" d="M612.1,66.1c-1.3-2.6-3.8-5.7-7.6-9.4c-1.4-1.5-2.4-2.6-2.8-3.3s-0.7-1.5-0.7-2.2c0-1.1,0.4-1.9,1.3-2.6
	c0.9-0.6,2-1,3.6-1c1,0,2.1,0.1,3.2,0.4c1.1,0.3,2.3,0.7,3.4,1.3V31.4c-1.7-0.3-3.4-0.5-4.9-0.7c-1.5-0.2-3-0.2-4.4-0.2
	c-7.4,0-13.1,1.6-17.2,4.9c-4.1,3.3-6.2,7.7-6.2,13.5c0,2.3,0.5,4.5,1.4,6.5c0.9,2,2.3,3.9,4.1,5.6c0.5,0.5,1.2,1.1,2,1.8
	c3.3,3.1,5,5.4,5,7c0,1.2-0.5,2.2-1.4,2.9c-0.9,0.8-2.2,1.1-3.7,1.1c-0.8,0-1.7-0.1-2.7-0.4c-0.9-0.3-2-0.6-3.2-1.2v19.1
	c3.1,0.4,5.4,0.7,7.1,0.8c1.6,0.1,3.1,0.2,4.4,0.2c6.7,0,12-1.5,15.7-4.6c3.7-3.1,5.6-7.5,5.6-13.1C614,71.5,613.4,68.6,612.1,66.1z
	"/>
</svg>
